# xmcd
#
# Track frame offsets: 
#        150
#        2843
#        34601
#        52519
#        70572
#        87493
#        115262
#        135476
#        156438
#        179862
#        195671
#        220555
#        239638
#        259417
#        278349
#        298619
#        320456
#
# Disc length: 4556 seconds
#
# Revision: 1
# Processed by: cddbd v1.5.2PL0 Copyright (c) Steve Scherf et al.
# Submitted via: ExactAudioCopyFreeDBPlugin 1.0
#
DISCID=f111ca11
DTITLE=Raheem DeVaughn - Love Sex Passion
DYEAR=2015
DGENRE=R&B
TTITLE0=Welcum 2 Love, Sex and Passion (Intro)
TTITLE1=Black Ice Cream
TTITLE2=Pretty Lady (feat. Trombone Shorty)
TTITLE3=Queen
TTITLE4=Nothing Without You
TTITLE5=When You Love Somebody
TTITLE6=All I Know (My Heart)
TTITLE7=Terms of Endearment
TTITLE8=Miss You Sex
TTITLE9=Baby Come Back
TTITLE10=Never Never Land
TTITLE11=Temperature's Rising
TTITLE12=Sun Proof Room (50 Shades)
TTITLE13=Strip
TTITLE14=Countdown To Love
TTITLE15=Feather Rock Lovin' (feat. Boney James and The Illadelph Horns)
TTITLE16=Infiniti
EXTD=
EXTT0=
EXTT1=
EXTT2=
EXTT3=
EXTT4=
EXTT5=
EXTT6=
EXTT7=
EXTT8=
EXTT9=
EXTT10=
EXTT11=
EXTT12=
EXTT13=
EXTT14=
EXTT15=
EXTT16=
PLAYORDER=
